PathFileType	4	(X/Y/Z)	/Users/niels/Desktop/University/Third Semester/Perception and Action/Exam/Gymnastics Motion Tracking/Code for Gym Tracking/Analyzed Data/Webcam_Backflip/id4_4_pure_Sports2D/id4_4_pure_Sports2D_px_person00.trc
DataRate	CameraRate	NumFrames	NumMarkers	Units	OrigDataRate	OrigDataStartFrame	OrigNumFrames
29.8125	29.8125	10	22	m	29.8125	20	160
Frame#	Time	Hip			RHip			RKnee			RAnkle			RBigToe			RSmallToe			RHeel			LHip			LKnee			LAnkle			LBigToe			LSmallToe			LHeel			Neck			Head			Nose			RShoulder			RElbow			RWrist			LShoulder			LElbow			LWrist		
		X1	Y1	Z1	X2	Y2	Z2	X3	Y3	Z3	X4	Y4	Z4	X5	Y5	Z5	X6	Y6	Z6	X7	Y7	Z7	X8	Y8	Z8	X9	Y9	Z9	X10	Y10	Z10	X11	Y11	Z11	X12	Y12	Z12	X13	Y13	Z13	X14	Y14	Z14	X15	Y15	Z15	X16	Y16	Z16	X17	Y17	Z17	X18	Y18	Z18	X19	Y19	Z19	X20	Y20	Z20	X21	Y21	Z21	X22	Y22	Z22
20	0.670859538784067	0.922821311467205	-0.5287496498017277	0.0	0.9180093291621062	-0.5273298706491181	0.0	0.9835022505728932	-0.6217640023490721	0.0	0.9521037589961018	-0.7287484087142743	0.0	0.9860921081367513	-0.7587568451682054	0.0	0.97526750944278	-0.7610499808100768	0.0	0.9382374476328654	-0.7419859610065992	0.0	0.9192554678193348	-0.5251333269892163	0.0	0.9807818781377596	-0.6209293786890849	0.0	0.9564366631240975	-0.7232404711514232	0.0	0.985079772999565	-0.7537367847708794	0.0	0.9818855446502558	-0.7500589661934521	0.0	0.9387911399044467	-0.736956612424239	0.0	0.9970973527292235	-0.4084535425921308	0.0	1.0485140313566896	-0.353622376199837	0.0	1.0445230740208518	-0.38150119296632534	0.0	0.9936358221746913	-0.41743736213545146	0.0	0.9283814028495747	-0.42059103295758116	0.0	0.8674022555323865	-0.4188842488851148	0.0	0.9877707703372902	-0.41150322054236155	0.0	0.9281214515905978	-0.41714867527966837	0.0	0.8767209625348693	-0.41819612707608184	0.0
21	0.7044025157232703	0.9195492567947873	-0.5412990888492442	0.0	0.9155856821049807	-0.539860730881714	0.0	0.9862957888567553	-0.6284799036347091	0.0	0.9487331803398684	-0.7325202308503131	0.0	0.9833884345117614	-0.7612884200802706	0.0	0.9729120373333995	-0.7636994582457675	0.0	0.9343484171682759	-0.7456688328748998	0.0	0.9171315801520609	-0.5374148733051194	0.0	0.9841313435689517	-0.6271334233774988	0.0	0.95428157665325	-0.7264788944645104	0.0	0.9839020951081057	-0.7563112092107381	0.0	0.9810408727136203	-0.7528323046815716	0.0	0.9362999452060834	-0.7400270344228037	0.0	0.9950298999774053	-0.42133879559917303	0.0	1.0430416045775213	-0.3637979777470453	0.0	1.0411155494999749	-0.39217049702379525	0.0	0.9913671334616252	-0.43303167624157474	0.0	0.9307966925007252	-0.45304616572630546	0.0	0.874996376756383	-0.4674501902362236	0.0	0.9847443433590215	-0.4262852279890028	0.0	0.9288975699569596	-0.4478726926684177	0.0	0.8817441663953055	-0.46307475531712744	0.0
22	0.7379454926624737	0.9164955917360124	-0.5579506353785642	0.0	0.9136275335661566	-0.5567245998149528	0.0	0.9877876310586572	-0.6400805986203527	0.0	0.9451491995637779	-0.7409498298231931	0.0	0.9802024142351566	-0.7682418170197591	0.0	0.9701291389427362	-0.7707150599171554	0.0	0.9305510653194335	-0.7538144596480781	0.0	0.9156095838953637	-0.5539896818262241	0.0	0.9862892986836638	-0.6380817950244804	0.0	0.9516139600508827	-0.7346875212830354	0.0	0.9826153598965115	-0.7635973062188846	0.0	0.979633497602406	-0.7601650658872126	0.0	0.9334225540486006	-0.7480129763864234	0.0	0.992317394666981	-0.43680860376431224	0.0	1.0352195092288434	-0.3766243917948825	0.0	1.0359146970747126	-0.4055166635341908	0.0	0.9884526731956383	-0.4511653434956619	0.0	0.938430668410346	-0.4884518764147162	0.0	0.894549992688718	-0.5181060715931071	0.0	0.9812514452760855	-0.4439032040342953	0.0	0.9349457994165006	-0.48154585796860594	0.0	0.8982455652537302	-0.5092854612237215	0.0
23	0.771488469601677	0.9137921364345245	-0.5778904391652043	0.0	0.9118354160190906	-0.5770662991630515	0.0	0.9876754686800293	-0.6567363272746595	0.0	0.9418439891734417	-0.7546379985659389	0.0	0.9772048720632593	-0.7802018193296475	0.0	0.9675452387974378	-0.7827060729742059	0.0	0.9273373844615456	-0.7670315226427256	0.0	0.9146488144329669	-0.5741238690692325	0.0	0.9868701145516589	-0.65418624274081	0.0	0.9486151601487087	-0.7485695391161535	0.0	0.9812023552096887	-0.7761922942608436	0.0	0.9775783055192936	-0.7727801582831261	0.0	0.9303057287584944	-0.761438267178927	0.0	0.9886246635538902	-0.45415185464857594	0.0	1.0252595525372852	-0.3912610571188424	0.0	1.0290683528424431	-0.4207865142812833	0.0	0.9845048275500993	-0.47059458652492525	0.0	0.9515276203780827	-0.52217555756945	0.0	0.9264048192529292	-0.5627066646163018	0.0	0.9776972465732714	-0.46342367405669316	0.0	0.9473790140923679	-0.5139022988682155	0.0	0.9276135550725331	-0.5496915499706106	0.0
24	0.8050314465408803	0.9118139282526372	-0.5997092863783248	0.0	0.910159944781511	-0.5994052342186167	0.0	0.9857869165890795	-0.6778282522103879	0.0	0.9392088760710493	-0.7733840792089813	0.0	0.975009581426057	-0.7967370462998467	0.0	0.9656839880923068	-0.7992888668578336	0.0	0.9250249394288069	-0.7850966292545998	0.0	0.9142443020350935	-0.5964202871996422	0.0	0.9854941249767518	-0.6750662967808003	0.0	0.9454952344376547	-0.7679388975974408	0.0	0.9796202330901418	-0.7935920270243759	0.0	0.9747630651309976	-0.7903404894906317	0.0	0.9271911045885947	-0.7799694063950259	0.0	0.9838598866091542	-0.47225760063819056	0.0	1.0135044415650734	-0.406491348307474	0.0	1.020930135949564	-0.4367439138056591	0.0	0.9792735292864191	-0.4898287544647912	0.0	0.9688457389637888	-0.5491046448530147	0.0	0.9669908160020502	-0.5926190487971335	0.0	0.9744384791557865	-0.48339514526033783	0.0	0.96536546368742	-0.5400958281873899	0.0	0.966769965505554	-0.5766990602623034	0.0
25	0.8385744234800837	0.9112099546442632	-0.6215132601716796	0.0	0.9091064569305324	-0.6217036100292052	0.0	0.9821796191061964	-0.7016711760086446	0.0	0.9372904717301481	-0.7956074324224746	0.0	0.9737904361514061	-0.8160790821163143	0.0	0.9646086007449739	-0.8187653642813921	0.0	0.9235404565208474	-0.8064693502639649	0.0	0.9146900656798373	-0.6188500809819378	0.0	0.982070639296467	-0.6990820656780402	0.0	0.9424679794690858	-0.7910435316634252	0.0	0.9779036832575493	-0.8138711684231398	0.0	0.9712812515760223	-0.8109600448614419	0.0	0.9242767246287769	-0.8018793168784532	0.0	0.9781784186153094	-0.4894702270614109	0.0	1.000303307256308	-0.4208613334851824	0.0	1.0118588143282834	-0.4517599234063505	0.0	0.9729041286774254	-0.5071043155268001	0.0	0.9875715935912555	-0.5648361714251523	0.0	1.0088360985898224	-0.601355396867644	0.0	0.9714211681872794	-0.5017090781608681	0.0	0.9856034629262769	-0.5556898010047099	0.0	1.0079057885081968	-0.584388496878415	0.0
26	0.8721174004192871	0.9125561395312092	-0.6408169035706374	0.0	0.9095367234784371	-0.6412694945091141	0.0	0.977259283205376	-0.7252972004152978	0.0	0.9358995472919295	-0.8182172687057885	0.0	0.9731334664183784	-0.8354004462352612	0.0	0.9638940039196926	-0.8383192297629243	0.0	0.9225814227723189	-0.8282333235625611	0.0	0.9163511750821978	-0.6386716444246892	0.0	0.977044406761616	-0.7231335659714173	0.0	0.939729016564201	-0.8144663192083991	0.0	0.9761622332383455	-0.8340004381872925	0.0	0.9675731689089306	-0.8314653136092232	0.0	0.9217422131572327	-0.8239599440502222	0.0	0.9717646381913655	-0.5036732848248152	0.0	0.9860113583068757	-0.43269229824355143	0.0	1.00201930447526	-0.4639187443346414	0.0	0.9658857997270591	-0.5204455029933462	0.0	1.0037922605920606	-0.5666878675753537	0.0	1.042457492765785	-0.5869358284443665	0.0	0.9679968403856952	-0.515853832047739	0.0	1.0031786721411708	-0.55788353044612	0.0	1.0409360837469135	-0.5707959136671623	0.0
27	0.9056603773584905	0.915989532475413	-0.6545978272968873	0.0	0.9121897091194204	-0.6549372075178492	0.0	0.9718817087446454	-0.7447470275603849	0.0	0.9349533970381027	-0.8372521807096138	0.0	0.9722954757096441	-0.8515856787401038	0.0	0.962978395452252	-0.8547132529672582	0.0	0.9220225269524324	-0.8467048728081776	0.0	0.9192975057643881	-0.6526535598653288	0.0	0.9713241865974063	-0.7430903948631303	0.0	0.9374368412260764	-0.8339964591445564	0.0	0.9744342446961177	-0.8506899053891726	0.0	0.9641910375658763	-0.8483576247404461	0.0	0.9198055845167536	-0.8423096659494234	0.0	0.9646084091237521	-0.512599559749923	0.0	0.9709264459453718	-0.4399648647200635	0.0	0.9912594038124761	-0.471100002173084	0.0	0.9587027153098856	-0.5278467942899076	0.0	1.0135706886131883	-0.5543044632220154	0.0	1.0598018072271091	-0.5528095316795473	0.0	0.9631949799200163	-0.5234914716306632	0.0	1.0135295540889906	-0.5464242626544946	0.0	1.0576698781580478	-0.5389796764229422	0.0
28	0.9392033542976937	0.9212091983235318	-0.6598486258326491	0.0	0.917338702437714	-0.659751902635088	0.0	0.9672975166422849	-0.7560419682996096	0.0	0.9346144153849253	-0.8489256753093634	0.0	0.9706670203349356	-0.8619587154354962	0.0	0.9615537155258759	-0.8650914283350101	0.0	0.9220409706513858	-0.858344196315577	0.0	0.9233069626032416	-0.6577817962164197	0.0	0.9661315744302089	-0.7548178136833594	0.0	0.9357782158727354	-0.8458246915948108	0.0	0.9726404801346353	-0.8611951224986829	0.0	0.9615261069777269	-0.8587317215626489	0.0	0.918711039898907	-0.8534427072765448	0.0	0.9564898269386936	-0.514203472219422	0.0	0.9549561936675531	-0.44052720734968015	0.0	0.9791036737855026	-0.4712083954099958	0.0	0.95149046133809	-0.5275544816185653	0.0	1.014156763871285	-0.5297109582678439	0.0	1.057265720791287	-0.5064467549470559	0.0	0.9562243605477021	-0.52294787461755	0.0	1.0141062910725236	-0.5234009278398833	0.0	1.0549181850117608	-0.4956224699580361	0.0
29	0.9727463312368971	0.9276331999488502	-0.6543509326088033	0.0	0.9245969981751525	-0.6536936407977106	0.0	0.9650155871122696	-0.7562021640177974	0.0	0.9352564528684293	-0.8503305931557517	0.0	0.9681750795026971	-0.8644686645180201	0.0	0.9597413349212995	-0.867268912497806	0.0	0.9230185289223474	-0.8603031023348537	0.0	0.9279512873952178	-0.6520046730858673	0.0	0.9629771217072574	-0.7551662497309815	0.0	0.9351766501367815	-0.8471373775002252	0.0	0.9707656835647134	-0.8635018969535223	0.0	0.9597684327086881	-0.8605264237682376	0.0	0.9188265956499257	-0.8547871834082232	0.0	0.9470776499591711	-0.5071354668946774	0.0	0.9373979908889178	-0.4329349622149683	0.0	0.9648788218234753	-0.46275516614610723	0.0	0.9438839126581928	-0.5185143047572918	0.0	1.0047397372678732	-0.4968265643632991	0.0	1.0364564643825913	-0.4563800774866665	0.0	0.9467608030349128	-0.5134786855738084	0.0	1.0048752143164983	-0.49220639134810884	0.0	1.0349388286677514	-0.4481673556830703	0.0
